<?xml version="1.0" encoding="UTF-8"?>
<svg width="24" height="24" viewBox="0 0 24 24" xmlns="http://www.w3.org/2000/svg">
  <path
    d="M23.5 6.2c-.27-1.02-1.07-1.82-2.09-2.09C19.2 3.5 12 3.5 12 3.5s-7.2 0-9.41.61C1.57 4.39.77 5.19.5 6.21.04 8.42 0 12 0 12s.04 3.58.5 5.79c.27 1.02 1.07 1.82 2.09 2.09C4.8 20.5 12 20.5 12 20.5s7.2 0 9.41-.61c1.02-.27 1.82-1.07 2.09-2.09.46-2.21.5-5.79.5-5.79s-.04-3.58-.5-5.79z"
    fill="#FF0000"
  />
  <path d="M9.75 15.02l6.38-3.02-6.38-3.02v6.04z" fill="#fff" />
</svg>
